<!--?xml version="1.0" standalone="no"?-->
              <svg id="sw-js-blob-svg" viewBox="0 0 100 100" xmlns="http://www.w3.org/2000/svg" version="1.1">
                    <defs> 
                        <linearGradient id="sw-gradient" x1="0" x2="1" y1="1" y2="0">
                            <stop id="stop1" stop-color="rgba(215.326, 220.728, 234.233, 1)" offset="0%"></stop>
                            <stop id="stop2" stop-color="rgba(113.164, 189.333, 238.787, 1)" offset="100%"></stop>
                        </linearGradient>
                    </defs>
                <path fill="url(#sw-gradient)" d="M21.2,-23.5C27.9,-19.7,33.9,-13.4,35.3,-6.2C36.6,1,33.1,9.1,28.8,16.8C24.6,24.5,19.4,31.9,12.1,35.6C4.8,39.3,-4.8,39.3,-13.2,36.3C-21.6,33.2,-28.8,27,-33.7,19.2C-38.6,11.3,-41.2,1.8,-39.6,-6.9C-38,-15.6,-32.2,-23.5,-24.9,-27.3C-17.6,-31,-8.8,-30.6,-0.8,-29.7C7.3,-28.8,14.5,-27.4,21.2,-23.5Z" width="100%" height="100%" transform="translate(50 50)" stroke-width="0" style="transition: all 0.3s ease 0s;" stroke="url(#sw-gradient)"></path>
              </svg>